{"title":"Enemies.Among.Us.2010.DVDRip.Mp4.FEEL-FREE","uid":5672923,"size":764070171,"categoryP":"video","categoryS":"movies","magnet":"?xt=urn:btih:a307d97bde7a4088ad18977a705df075252e9819&amp;dn=Enemies.Among.Us.2010.DVDRip.Mp4.FEEL-FREE&amp;tr=udp%3A%2F%2Ftracker.openbittorrent.com%3A80&amp;tr=udp%3A%2F%2Fopen.demonii.com%3A1337&amp;tr=udp%3A%2F%2Ftracker.coppersurfer.tk%3A6969&amp;tr=udp%3A%2F%2Fexodus.desync.com%3A6969","seeders":0,"leechers":1,"uploader":"neon","files":7,"time":1278421226,"description":" &lt;a href=&quot;http://www.traileraddict.com/trailer/enemies-among-us/trailer&quot; rel=&quot;nofollow&quot; target=&quot;_NEW&quot;&gt;http://www.traileraddict.com/trailer/enemies-among-us/trailer&lt;/a&gt;\n\nEnemies.Among.Us.2010.DVDRip.Mp4.FEEL-FREE &lt;a href=&quot;\nhttp://www.imdb.com/title/tt1462044/&quot; rel=&quot;nofollow&quot; target=&quot;_NEW&quot;&gt;\nhttp://www.imdb.com/title/tt1462044/&lt;/a&gt;\nGenre::Action | Drama &lt;a href=&quot;\nhttp://www.starshare.ro/bitbucket/Enemies.Among.Us.2010.DVDRip.Mp4.FEEL-FREE.mp4_thumbs_%5B2010.07.06_13.02.56%5D.jpg&quot; rel=&quot;nofollow&quot; target=&quot;_NEW&quot;&gt;\nhttp://www.starshare.ro/bitbucket/Enemies.Among.Us.2010.DVDRip.Mp4.FEEL-FREE.mp4_thumbs_%5B2010.07.06_13.02.56%5D.jpg&lt;/a&gt;\n\nGeneral\nComplete name : Enemies.Among.Us.2010.DVDRip.Mp4.FEEL-FREE\nFormat : MPEG-4\nFormat profile : Base Media\nCodec ID : isom\nFile size : 726 MiB\nDuration : 1h 15mn\nOverall bit rate : 1 339 Kbps\n\nVideo\nID : 1\nFormat : MPEG-4 Visual\nFormat profile : Simple@L1\nFormat settings, BVOP : No\nFormat settings, QPel : No\nFormat settings, GMC : No warppoints\nFormat settings, Matrix : Default (H.263)\nCodec ID : 20\nDuration : 1h 15mn\nBit rate mode : Variable\nBit rate : 1 196 Kbps\nWidth : 720 pixels\nHeight : 304 pixels\nDisplay aspect ratio : 2.35:1\nFrame rate mode : Constant\nFrame rate : 23.976 fps\nResolution : 24 bits\nColorimetry : 4:2:0\nScan type : Progressive\nBits/(Pixel*Frame) : 0.228\nStream size : 648 MiB (89%)\nWriting library : Lavc51.40.4\n\nAudio\nID : 2\nFormat : AAC\nFormat/Info : Advanced Audio Codec\nFormat version : Version 4\nFormat profile : LC\nFormat settings, SBR : No\nCodec ID : 40\nDuration : 1h 15mn\nBit rate mode : Variable\nBit rate : 139 Kbps\nChannel(s) : 6 channels\nChannel positions : Front: L C R, Rear: L R, LFE\nSampling rate : 48.0 KHz\nResolution : 16 bits\nStream size : 75.2 MiB (10%)","torrent":{"xt":"urn:btih:a307d97bde7a4088ad18977a705df075252e9819","amp;dn":"Enemies.Among.Us.2010.DVDRip.Mp4.FEEL-FREE","amp;tr":["udp%3A%2F%2Ftracker.openbittorrent.com%3A80","udp%3A%2F%2Fopen.demonii.com%3A1337","udp%3A%2F%2Ftracker.coppersurfer.tk%3A6969","udp%3A%2F%2Fexodus.desync.com%3A6969"],"infoHash":"a307d97bde7a4088ad18977a705df075252e9819","infoHashBuffer":{"type":"Buffer","data":[163,7,217,123,222,122,64,136,173,24,151,122,112,93,240,117,37,46,152,25]},"announce":[],"urlList":[]}}